# xmcd CD database file
#
# Track frame offsets:
#	150
#	13485
#	30650
#	48358
#	74040
#	87093
#	102761
#	125406
#	154417
#
# Disc length: 3790 seconds
#
# Revision: 0
# Processed by: cddbd v1.5.1PL0 Copyright (c) Steve Scherf et al.
# Submitted via: CDex 1.60beta1
#
DISCID=780ecc09
DTITLE=Project-K NEKO湘南事務局 - RAGNAROK FAN DISC vol.2
DYEAR=1900
DGENRE=未分類 (日本)
TTITLE0=Ancient Groover -Munak .dk-
TTITLE1=Through the Tower - 剣と華吹雪 -
TTITLE2=Desert -Crystalic Trance mix- ver1.2
TTITLE3=Dreamer's Dream -Acidic Progress style- ver1.0
TTITLE4=AncirntGroover
TTITLE5=Welcome Mr.Hwang
TTITLE6=Knight of the Tower
TTITLE7=Plateu 2-Step Remix
TTITLE8=データトラック
EXTD=
EXTT0=
EXTT1=
EXTT2=
EXTT3=
EXTT4=
EXTT5=
EXTT6=
EXTT7=
EXTT8=
PLAYORDER=
